<svg width="500" height="480" viewBox="0 0 500 480" fill="none" xmlns="http://www.w3.org/2000/svg">
<path d="M69.3 396C65.3 396 63.3 394.667 63.3 392C63.3 389.067 65.3 387.333 69.3 386.8L88.1 384.4C93.9667 383.6 97.9667 382.267 100.1 380.4C102.233 378.267 103.833 374.667 104.9 369.6L116.9 318C117.7 314 116.1 312 112.1 312H30.9C26.6334 312 24.5 310.4 24.5 307.2C24.5 305.6 25.0334 303.867 26.1 302C27.4334 300.133 29.0334 297.867 30.9 295.2L169.3 112C171.167 109.333 173.567 108 176.5 108H184.5C186.633 108 187.833 108.667 188.1 110C188.633 111.067 188.1 112.667 186.5 114.8L51.7 284C49.0334 287.733 49.5667 289.6 53.3001 289.6H118.1C121.567 289.6 123.7 288 124.5 284.8L142.9 205.6C143.7 202.933 145.567 200.8 148.5 199.2L164.1 190.8C166.233 189.467 167.833 189.2 168.9 190C170.233 190.8 170.633 192.267 170.1 194.4L149.7 284C148.9 287.733 150.233 289.6 153.7 289.6H171.3C174.767 289.6 176.1 291.2 175.3 294.4L172.1 307.2C171.3 310.4 169.3 312 166.1 312H148.5C144.767 312 142.5 313.867 141.7 317.6L129.7 369.6C128.633 375.2 128.633 379.067 129.7 381.2C131.033 383.067 134.367 384.4 139.7 385.2L146.9 386.4C149.3 386.667 150.9 387.333 151.7 388.4C152.5 389.2 152.9 390.133 152.9 391.2C152.9 394.4 150.5 396 145.7 396H69.3ZM238.722 399.6C219.255 399.6 205.255 390.8 196.722 373.2C188.189 355.333 183.922 331.733 183.922 302.4C183.922 287.2 185.655 270.667 189.122 252.8C192.855 234.933 198.055 217.333 204.722 200C211.389 182.4 219.255 166.4 228.322 152C237.655 137.333 247.922 125.733 259.122 117.2C270.322 108.4 282.189 104 294.722 104C314.189 104 328.189 112.933 336.722 130.8C345.255 148.4 349.522 171.867 349.522 201.2C349.522 216.133 347.655 232.533 343.922 250.4C340.455 268.267 335.389 286 328.722 303.6C322.055 320.933 314.055 336.933 304.722 351.6C295.655 366 285.522 377.6 274.322 386.4C263.122 395.2 251.255 399.6 238.722 399.6ZM240.722 389.2C249.522 389.2 257.655 385.333 265.122 377.6C272.855 369.867 279.922 359.467 286.322 346.4C292.722 333.333 298.322 318.933 303.122 303.2C308.189 287.467 312.455 271.467 315.922 255.2C319.389 238.933 321.922 223.733 323.522 209.6C325.389 195.2 326.322 183.067 326.322 173.2C326.322 152.933 323.389 138.133 317.522 128.8C311.922 119.2 303.655 114.4 292.722 114.4C283.922 114.4 275.655 118.267 267.922 126C260.455 133.733 253.522 144.133 247.122 157.2C240.722 170 234.989 184.4 229.922 200.4C225.122 216.133 220.989 232.133 217.522 248.4C214.055 264.4 211.389 279.6 209.522 294C207.922 308.4 207.122 320.533 207.122 330.4C207.122 341.067 208.055 350.8 209.922 359.6C212.055 368.4 215.522 375.6 220.322 381.2C225.122 386.533 231.922 389.2 240.722 389.2ZM379.097 396C375.097 396 373.097 394.667 373.097 392C373.097 389.067 375.097 387.333 379.097 386.8L397.897 384.4C403.764 383.6 407.764 382.267 409.897 380.4C412.03 378.267 413.63 374.667 414.697 369.6L426.697 318C427.497 314 425.897 312 421.897 312H340.697C336.43 312 334.297 310.4 334.297 307.2C334.297 305.6 334.83 303.867 335.897 302C337.23 300.133 338.83 297.867 340.697 295.2L479.097 112C480.964 109.333 483.364 108 486.297 108H494.297C496.43 108 497.63 108.667 497.897 110C498.43 111.067 497.897 112.667 496.297 114.8L361.497 284C358.83 287.733 359.364 289.6 363.097 289.6H427.897C431.364 289.6 433.497 288 434.297 284.8L452.697 205.6C453.497 202.933 455.364 200.8 458.297 199.2L473.897 190.8C476.03 189.467 477.63 189.2 478.697 190C480.03 190.8 480.43 192.267 479.897 194.4L459.497 284C458.697 287.733 460.03 289.6 463.497 289.6H481.097C484.564 289.6 485.897 291.2 485.097 294.4L481.897 307.2C481.097 310.4 479.097 312 475.897 312H458.297C454.564 312 452.297 313.867 451.497 317.6L439.497 369.6C438.43 375.2 438.43 379.067 439.497 381.2C440.83 383.067 444.164 384.4 449.497 385.2L456.697 386.4C459.097 386.667 460.697 387.333 461.497 388.4C462.297 389.2 462.697 390.133 462.697 391.2C462.697 394.4 460.297 396 455.497 396H379.097Z" fill="url(#paint0_linear_119_14)"/>
<path d="M62.4001 463.35C61.1001 463.35 60.2501 462.55 59.8501 460.95L37.9501 371.55C37.8501 371.05 37.6001 370.8 37.2001 370.8C36.8001 370.8 36.5 371.05 36.3 371.55L18.45 449.1C17.75 451.9 17.7 454.05 18.3 455.55C19 456.95 20.55 457.85 22.9501 458.25L24.75 458.55C26.05 458.65 26.6 459.25 26.4 460.35C26.1001 461.45 25.2001 462 23.7 462H2.25005C0.750048 462 0.150048 461.45 0.450049 460.35C0.650049 459.25 1.40005 458.65 2.70005 458.55L4.80005 458.25C7.50005 457.85 9.50005 456.95 10.8 455.55C12.1 454.05 13.1 451.9 13.8 449.1L33.4501 363.9C33.95 361.8 33.95 360.4 33.4501 359.7C32.9501 359 31.6001 358.45 29.4001 358.05L26.1 357.45C24.8 357.15 24.3 356.55 24.6001 355.65C24.8 354.55 25.6501 354 27.1501 354H41.7001C44.2001 354 45.7 355.1 46.2 357.3L65.1001 435C65.3001 435.7 65.6001 436.05 66.0001 436.05C66.5001 436.05 66.8001 435.7 66.9001 435L82.65 366.9C83.4501 363.7 83.4501 361.5 82.65 360.3C81.8501 359 80.6001 358.2 78.9001 357.9L76.35 357.45C75.0501 357.15 74.5501 356.55 74.8501 355.65C75.0501 354.55 75.9001 354 77.4001 354H98.8501C100.35 354 101 354.55 100.8 355.65C100.4 356.75 99.6001 357.35 98.4001 357.45L96.3001 357.75C93.6001 358.15 91.6001 359 90.3 360.3C89.1001 361.5 88.1001 363.7 87.3001 366.9L65.8501 460.05C65.3501 462.25 64.2001 463.35 62.4001 463.35ZM102.941 463.35C96.7411 463.35 91.8411 460.8 88.2411 455.7C84.6411 450.5 82.8411 443.5 82.8411 434.7C82.8411 428.2 83.8911 421.95 85.9911 415.95C88.0911 409.95 90.8411 404.6 94.2411 399.9C97.7411 395.2 101.591 391.5 105.791 388.8C110.091 386 114.391 384.6 118.691 384.6C124.891 384.6 129.791 387.15 133.391 392.25C136.991 397.35 138.791 404.35 138.791 413.25C138.791 419.75 137.741 426 135.641 432C133.541 438 130.741 443.35 127.241 448.05C123.841 452.75 119.991 456.5 115.691 459.3C111.491 462 107.241 463.35 102.941 463.35ZM102.641 459.75C105.841 459.75 108.941 458.2 111.941 455.1C115.041 452 117.841 447.9 120.341 442.8C122.841 437.7 124.841 432.05 126.341 425.85C127.841 419.55 128.591 413.25 128.591 406.95C128.591 394.45 125.341 388.2 118.841 388.2C115.741 388.2 112.641 389.75 109.541 392.85C106.441 395.85 103.641 399.9 101.141 405C98.7411 410.1 96.7911 415.8 95.2911 422.1C93.7911 428.3 93.0411 434.55 93.0411 440.85C93.0411 453.45 96.2411 459.75 102.641 459.75ZM151.25 463.35C147.85 463.35 145.2 462 143.3 459.3C141.4 456.6 141.1 452.25 142.4 446.25L154.85 391.95C155.15 390.45 154.55 389.7 153.05 389.7H147.35C145.95 389.7 145.25 389.05 145.25 387.75C145.25 387.05 145.5 386.5 146 386.1C146.5 385.7 147.1 385.5 147.8 385.5H153.2C155.5 385.5 156.85 384.45 157.25 382.35L160.85 366.3C161.15 365.2 161.85 364.65 162.95 364.65H169.1C170.5 364.65 171.05 365.3 170.75 366.6L167 383.25C166.7 384.75 167.3 385.5 168.8 385.5H177.35C179.05 385.5 179.9 386.15 179.9 387.45C179.9 388.95 178.85 389.7 176.75 389.7H168.65C166.45 389.7 165.1 390.75 164.6 392.85L152 447.75C151.5 449.95 151.55 451.7 152.15 453C152.85 454.2 154 454.8 155.6 454.8C157.9 454.8 160 453.5 161.9 450.9C163.9 448.3 166 443.35 168.2 436.05C168.6 434.75 169.25 434.1 170.15 434.1C170.85 434.1 171.3 434.4 171.5 435C171.7 435.6 171.55 436.7 171.05 438.3C169.15 445.1 167.05 450.3 164.75 453.9C162.55 457.5 160.3 460 158 461.4C155.7 462.7 153.45 463.35 151.25 463.35ZM195.108 462C193.808 462 193.308 461.35 193.608 460.05L208.758 395.25C209.658 391.55 208.458 389.7 205.158 389.7H202.008C200.408 389.7 199.608 389 199.608 387.6C199.608 386.2 200.508 385.5 202.308 385.5C205.408 385.5 207.708 385.1 209.208 384.3C210.808 383.5 211.858 381.9 212.358 379.5C213.658 373.8 215.558 368.75 218.058 364.35C220.658 359.85 223.758 356.3 227.358 353.7C230.958 351.1 234.908 349.8 239.208 349.8C242.708 349.8 245.508 350.65 247.608 352.35C249.808 353.95 250.908 356.2 250.908 359.1C250.908 361.3 250.308 363.1 249.108 364.5C248.008 365.8 246.608 366.45 244.908 366.45C242.808 366.45 241.408 365.85 240.708 364.65C240.108 363.45 239.708 362.05 239.508 360.45C239.408 358.85 239.108 357.45 238.608 356.25C238.108 355.05 236.958 354.45 235.158 354.45C232.858 354.45 230.808 355.6 229.008 357.9C227.308 360.1 225.758 364.3 224.358 370.5L221.358 383.55C221.058 384.85 221.608 385.5 223.008 385.5H235.008C236.908 385.5 237.658 386.2 237.258 387.6C236.958 389 236.058 389.7 234.558 389.7H221.508C220.508 389.7 219.858 390.2 219.558 391.2L203.508 460.35C203.208 461.45 202.508 462 201.408 462H195.108ZM243.59 463.35C237.39 463.35 232.49 460.8 228.89 455.7C225.29 450.5 223.49 443.5 223.49 434.7C223.49 428.2 224.54 421.95 226.64 415.95C228.74 409.95 231.49 404.6 234.89 399.9C238.39 395.2 242.24 391.5 246.44 388.8C250.74 386 255.04 384.6 259.34 384.6C265.54 384.6 270.44 387.15 274.04 392.25C277.64 397.35 279.44 404.35 279.44 413.25C279.44 419.75 278.39 426 276.29 432C274.19 438 271.39 443.35 267.89 448.05C264.49 452.75 260.64 456.5 256.34 459.3C252.14 462 247.89 463.35 243.59 463.35ZM243.29 459.75C246.49 459.75 249.59 458.2 252.59 455.1C255.69 452 258.49 447.9 260.99 442.8C263.49 437.7 265.49 432.05 266.99 425.85C268.49 419.55 269.24 413.25 269.24 406.95C269.24 394.45 265.99 388.2 259.49 388.2C256.39 388.2 253.29 389.75 250.19 392.85C247.09 395.85 244.29 399.9 241.79 405C239.39 410.1 237.44 415.8 235.94 422.1C234.44 428.3 233.69 434.55 233.69 440.85C233.69 453.45 236.89 459.75 243.29 459.75ZM293.849 463.35C290.149 463.35 287.599 461.7 286.199 458.4C284.899 455 284.999 450.55 286.499 445.05L298.349 401.55C299.149 398.65 299.349 396.4 298.949 394.8C298.549 393.2 297.649 392.4 296.249 392.4C293.949 392.4 291.599 394.15 289.199 397.65C286.899 401.15 284.899 406 283.199 412.2C282.899 413.3 282.249 413.85 281.249 413.85C279.849 413.85 279.399 412.85 279.899 410.85C282.199 402.45 285.199 396 288.899 391.5C292.699 386.9 296.849 384.6 301.349 384.6C304.949 384.6 307.349 386.25 308.549 389.55C309.749 392.85 309.549 397.35 307.949 403.05L295.949 446.55C294.049 453.45 294.699 456.9 297.899 456.9C299.899 456.9 302.199 455.55 304.799 452.85C307.399 450.15 310.099 446.45 312.899 441.75C315.799 437.05 318.649 431.7 321.449 425.7C324.249 419.7 326.799 413.4 329.099 406.8C331.399 400.2 333.299 393.65 334.799 387.15C335.099 386.05 335.799 385.5 336.899 385.5H342.899C344.299 385.5 344.849 386.15 344.549 387.45L330.449 447.75C329.349 452.45 330.199 454.8 332.999 454.8C337.199 454.8 341.599 448.45 346.199 435.75C346.599 434.45 347.299 433.8 348.299 433.8C348.899 433.8 349.299 434.05 349.499 434.55C349.799 435.05 349.799 435.7 349.499 436.5C346.799 445 343.599 451.6 339.899 456.3C336.199 461 332.299 463.35 328.199 463.35C320.999 463.35 318.599 458.1 320.999 447.6L324.899 430.95C325.099 430.25 324.949 429.85 324.449 429.75C324.049 429.65 323.699 429.9 323.399 430.5C317.599 442.5 312.249 451 307.349 456C302.449 460.9 297.949 463.35 293.849 463.35ZM354.721 460.05L368.971 400.2C369.471 398 369.521 396.3 369.121 395.1C368.821 393.8 367.921 393.15 366.421 393.15C364.621 393.15 362.621 394.5 360.421 397.2C358.321 399.8 355.921 404.8 353.221 412.2C352.821 413.5 352.121 414.15 351.121 414.15C349.621 414.15 349.221 413.25 349.921 411.45C352.121 404.55 354.421 399.15 356.821 395.25C359.321 391.35 361.821 388.6 364.321 387C366.821 385.4 369.121 384.6 371.221 384.6C374.521 384.6 376.871 385.85 378.271 388.35C379.671 390.75 379.721 394.75 378.421 400.35L374.671 416.55C374.571 417.25 374.721 417.65 375.121 417.75C375.521 417.85 375.871 417.6 376.171 417C380.071 408.9 383.821 402.5 387.421 397.8C391.021 393 394.421 389.6 397.621 387.6C400.821 385.6 403.721 384.6 406.321 384.6C410.021 384.6 412.721 386.1 414.421 389.1C416.121 392.1 416.121 396.7 414.421 402.9L403.021 446.4C402.321 449.2 402.271 451.3 402.871 452.7C403.471 454.1 404.571 454.8 406.171 454.8C408.171 454.8 410.121 453.5 412.021 450.9C414.021 448.2 416.071 443.15 418.171 435.75C418.471 434.65 419.121 434.1 420.121 434.1C420.921 434.1 421.371 434.4 421.471 435C421.671 435.6 421.671 436.3 421.471 437.1C419.571 443.9 417.521 449.25 415.321 453.15C413.121 456.95 410.871 459.6 408.571 461.1C406.371 462.6 404.121 463.35 401.821 463.35C398.221 463.35 395.521 461.85 393.721 458.85C391.921 455.85 391.821 451.2 393.421 444.9L404.971 401.4C406.071 397.5 406.221 394.8 405.421 393.3C404.721 391.8 403.671 391.05 402.271 391.05C400.071 391.05 397.571 392.45 394.771 395.25C391.971 397.95 389.121 401.7 386.221 406.5C383.321 411.2 380.471 416.55 377.671 422.55C374.871 428.55 372.321 434.8 370.021 441.3C367.821 447.8 366.021 454.15 364.621 460.35C364.321 461.45 363.621 462 362.521 462H356.371C354.971 462 354.421 461.35 354.721 460.05ZM432.493 463.35C428.793 463.35 425.943 461.8 423.943 458.7C421.943 455.6 420.943 451.05 420.943 445.05C420.943 439.35 421.743 433.65 423.343 427.95C424.943 422.15 427.143 416.65 429.943 411.45C432.743 406.25 435.893 401.65 439.393 397.65C442.993 393.65 446.743 390.5 450.643 388.2C454.643 385.8 458.593 384.6 462.493 384.6C465.193 384.6 467.543 385.3 469.543 386.7C470.943 387.6 471.793 387.3 472.093 385.8L476.893 366C477.393 364.2 477.393 362.95 476.893 362.25C476.493 361.55 475.593 361.15 474.193 361.05L469.693 360.6C468.193 360.5 467.543 359.85 467.743 358.65C467.943 357.75 468.643 357.2 469.843 357C473.443 356.4 476.643 355.7 479.443 354.9C482.243 354 484.493 352.85 486.193 351.45C486.993 350.85 487.743 350.55 488.443 350.55C489.643 350.55 490.093 351.3 489.793 352.8L468.493 445.05C466.993 451.55 467.993 454.8 471.493 454.8C473.793 454.8 475.843 453.25 477.643 450.15C479.543 447.05 481.443 442.25 483.343 435.75C483.643 434.65 484.293 434.1 485.293 434.1C485.993 434.1 486.443 434.4 486.643 435C486.843 435.6 486.843 436.3 486.643 437.1C484.743 446.5 482.093 453.25 478.693 457.35C475.393 461.35 471.493 463.35 466.993 463.35C463.093 463.35 460.293 461.7 458.593 458.4C456.993 455.1 456.843 450.6 458.143 444.9L459.793 438C459.993 437.3 459.843 436.9 459.343 436.8C458.943 436.7 458.593 436.95 458.293 437.55C453.493 446.95 448.943 453.6 444.643 457.5C440.343 461.4 436.293 463.35 432.493 463.35ZM436.093 455.7C438.493 455.7 441.143 454.25 444.043 451.35C446.943 448.45 449.793 444.7 452.593 440.1C455.493 435.5 458.143 430.55 460.543 425.25C462.943 419.95 464.843 414.85 466.243 409.95C467.743 405.05 468.493 400.9 468.493 397.5C468.493 391.4 466.343 388.35 462.043 388.35C459.443 388.35 456.693 389.55 453.793 391.95C450.893 394.25 448.093 397.4 445.393 401.4C442.793 405.4 440.393 409.95 438.193 415.05C436.093 420.05 434.393 425.3 433.093 430.8C431.793 436.2 431.143 441.5 431.143 446.7C431.143 450.2 431.593 452.6 432.493 453.9C433.493 455.1 434.693 455.7 436.093 455.7Z" fill="#DF0939"/>
<defs>
<linearGradient id="paint0_linear_119_14" x1="261.3" y1="0" x2="261.3" y2="415" gradientUnits="userSpaceOnUse">
<stop offset="0.432692"/>
<stop offset="0.572115" stop-color="#747474"/>
<stop offset="0.923077" stop-color="#F0F0F0"/>
</linearGradient>
</defs>
</svg>
