<svg width="616" height="497" viewBox="0 0 616 497" fill="none" xmlns="http://www.w3.org/2000/svg">
<path d="M114.62 396C110.62 396 108.62 394.667 108.62 392C108.62 389.067 110.62 387.333 114.62 386.8L133.42 384.4C139.287 383.6 143.287 382.267 145.42 380.4C147.553 378.267 149.153 374.667 150.22 369.6L162.22 318C163.02 314 161.42 312 157.42 312H76.22C71.9533 312 69.82 310.4 69.82 307.2C69.82 305.6 70.3533 303.867 71.42 302C72.7533 300.133 74.3533 297.867 76.22 295.2L214.62 112C216.487 109.333 218.887 108 221.82 108H229.82C231.953 108 233.153 108.667 233.42 110C233.953 111.067 233.42 112.667 231.82 114.8L97.02 284C94.3533 287.733 94.8867 289.6 98.62 289.6H163.42C166.887 289.6 169.02 288 169.82 284.8L188.22 205.6C189.02 202.933 190.887 200.8 193.82 199.2L209.42 190.8C211.553 189.467 213.153 189.2 214.22 190C215.553 190.8 215.953 192.267 215.42 194.4L195.02 284C194.22 287.733 195.553 289.6 199.02 289.6H216.62C220.087 289.6 221.42 291.2 220.62 294.4L217.42 307.2C216.62 310.4 214.62 312 211.42 312H193.82C190.087 312 187.82 313.867 187.02 317.6L175.02 369.6C173.953 375.2 173.953 379.067 175.02 381.2C176.353 383.067 179.687 384.4 185.02 385.2L192.22 386.4C194.62 386.667 196.22 387.333 197.02 388.4C197.82 389.2 198.22 390.133 198.22 391.2C198.22 394.4 195.82 396 191.02 396H114.62ZM284.042 399.6C264.575 399.6 250.575 390.8 242.042 373.2C233.509 355.333 229.242 331.733 229.242 302.4C229.242 287.2 230.975 270.667 234.442 252.8C238.175 234.933 243.375 217.333 250.042 200C256.709 182.4 264.575 166.4 273.642 152C282.975 137.333 293.242 125.733 304.442 117.2C315.642 108.4 327.509 104 340.042 104C359.509 104 373.509 112.933 382.042 130.8C390.575 148.4 394.842 171.867 394.842 201.2C394.842 216.133 392.975 232.533 389.242 250.4C385.775 268.267 380.709 286 374.042 303.6C367.375 320.933 359.375 336.933 350.042 351.6C340.975 366 330.842 377.6 319.642 386.4C308.442 395.2 296.575 399.6 284.042 399.6ZM286.042 389.2C294.842 389.2 302.975 385.333 310.442 377.6C318.175 369.867 325.242 359.467 331.642 346.4C338.042 333.333 343.642 318.933 348.442 303.2C353.509 287.467 357.775 271.467 361.242 255.2C364.709 238.933 367.242 223.733 368.842 209.6C370.709 195.2 371.642 183.067 371.642 173.2C371.642 152.933 368.709 138.133 362.842 128.8C357.242 119.2 348.975 114.4 338.042 114.4C329.242 114.4 320.975 118.267 313.242 126C305.775 133.733 298.842 144.133 292.442 157.2C286.042 170 280.309 184.4 275.242 200.4C270.442 216.133 266.309 232.133 262.842 248.4C259.375 264.4 256.709 279.6 254.842 294C253.242 308.4 252.442 320.533 252.442 330.4C252.442 341.067 253.375 350.8 255.242 359.6C257.375 368.4 260.842 375.6 265.642 381.2C270.442 386.533 277.242 389.2 286.042 389.2ZM424.417 396C420.417 396 418.417 394.667 418.417 392C418.417 389.067 420.417 387.333 424.417 386.8L443.217 384.4C449.084 383.6 453.084 382.267 455.217 380.4C457.35 378.267 458.95 374.667 460.017 369.6L472.017 318C472.817 314 471.217 312 467.217 312H386.017C381.75 312 379.617 310.4 379.617 307.2C379.617 305.6 380.15 303.867 381.217 302C382.55 300.133 384.15 297.867 386.017 295.2L524.417 112C526.284 109.333 528.684 108 531.617 108H539.617C541.75 108 542.95 108.667 543.217 110C543.75 111.067 543.217 112.667 541.617 114.8L406.817 284C404.15 287.733 404.684 289.6 408.417 289.6H473.217C476.684 289.6 478.817 288 479.617 284.8L498.017 205.6C498.817 202.933 500.684 200.8 503.617 199.2L519.217 190.8C521.35 189.467 522.95 189.2 524.017 190C525.35 190.8 525.75 192.267 525.217 194.4L504.817 284C504.017 287.733 505.35 289.6 508.817 289.6H526.417C529.884 289.6 531.217 291.2 530.417 294.4L527.217 307.2C526.417 310.4 524.417 312 521.217 312H503.617C499.884 312 497.617 313.867 496.817 317.6L484.817 369.6C483.75 375.2 483.75 379.067 484.817 381.2C486.15 383.067 489.484 384.4 494.817 385.2L502.017 386.4C504.417 386.667 506.017 387.333 506.817 388.4C507.617 389.2 508.017 390.133 508.017 391.2C508.017 394.4 505.617 396 500.817 396H424.417Z" fill="url(#paint0_linear_118_13)"/>
<path d="M1.55999 463C0.519995 463 -5.00679e-06 462.567 -5.00679e-06 461.7C-5.00679e-06 460.92 0.693328 460.357 2.07999 460.01L4.15999 459.62C5.89333 459.273 7.40999 458.45 8.71 457.15C9.92333 455.763 11.0933 453.857 12.22 451.43L51.09 370.18C51.5233 369.313 51.9567 368.75 52.39 368.49C52.8233 368.23 53.2133 368.1 53.56 368.1C53.9933 368.1 54.34 368.23 54.6 368.49C54.9467 368.75 55.12 369.313 55.12 370.18L56.55 452.6C56.6367 455.027 56.94 456.717 57.46 457.67C57.98 458.537 59.0633 459.187 60.71 459.62L62.4 460.01C63.44 460.27 63.96 460.79 63.96 461.57C63.96 462.523 63.2233 463 61.75 463H40.3C39.1733 463 38.61 462.567 38.61 461.7C38.61 460.747 39.4767 460.183 41.21 460.01L43.81 459.75C45.2833 459.577 46.28 459.1 46.8 458.32C47.4067 457.54 47.71 456.197 47.71 454.29L47.45 434.14C47.45 431.887 46.28 430.76 43.94 430.76H30.03C27.7767 430.76 26.0867 431.887 24.96 434.14L16.51 451.56C14.17 456.5 14.95 459.23 18.85 459.75L20.67 460.01C21.97 460.183 22.62 460.703 22.62 461.57C22.62 462.523 21.8833 463 20.41 463H1.55999ZM30.55 426.86H45.11C46.5833 426.86 47.32 426.123 47.32 424.65L47.06 389.16H46.41L29.38 424.65C29.0333 425.257 28.99 425.777 29.25 426.21C29.51 426.643 29.9433 426.86 30.55 426.86ZM69.8689 463C68.6556 463 68.1789 462.437 68.4389 461.31L80.7889 409.44C81.2222 407.533 81.2656 406.06 80.9189 405.02C80.6589 403.893 79.8789 403.33 78.5789 403.33C77.0189 403.33 75.2856 404.5 73.3789 406.84C71.5589 409.093 69.4789 413.427 67.1389 419.84C66.7922 420.967 66.1856 421.53 65.3189 421.53C64.0189 421.53 63.6722 420.75 64.2789 419.19C66.1856 413.21 68.1789 408.53 70.2589 405.15C72.4256 401.77 74.5922 399.387 76.7589 398C78.9256 396.613 80.9189 395.92 82.7389 395.92C85.5989 395.92 87.6356 397.003 88.8489 399.17C90.0622 401.25 90.1056 404.717 88.9789 409.57L87.5489 415.68C87.4622 416.287 87.5922 416.633 87.9389 416.72C88.2856 416.807 88.5889 416.59 88.8489 416.07C92.1422 408.53 95.1322 403.287 97.8189 400.34C100.506 397.393 103.582 395.92 107.049 395.92C109.389 395.92 111.122 396.57 112.249 397.87C113.462 399.083 114.069 400.773 114.069 402.94C114.069 405.107 113.549 406.84 112.509 408.14C111.469 409.44 110.126 410.09 108.479 410.09C107.092 410.09 106.096 409.743 105.489 409.05C104.882 408.357 104.406 407.577 104.059 406.71C103.799 405.757 103.496 404.933 103.149 404.24C102.802 403.547 102.239 403.2 101.459 403.2C100.159 403.2 98.4689 404.847 96.3889 408.14C94.3089 411.433 92.0556 415.897 89.6289 421.53C87.2889 427.077 84.9922 433.317 82.7389 440.25C80.5722 447.183 78.6656 454.29 77.0189 461.57C76.7589 462.523 76.1522 463 75.1989 463H69.8689ZM121.945 464.17C116.572 464.17 112.325 461.96 109.205 457.54C106.085 453.033 104.525 446.967 104.525 439.34C104.525 433.707 105.435 428.29 107.255 423.09C109.075 417.89 111.458 413.253 114.405 409.18C117.438 405.107 120.775 401.9 124.415 399.56C128.142 397.133 131.868 395.92 135.595 395.92C140.968 395.92 145.215 398.13 148.335 402.55C151.455 406.97 153.015 413.037 153.015 420.75C153.015 426.383 152.105 431.8 150.285 437C148.465 442.2 146.038 446.837 143.005 450.91C140.058 454.983 136.722 458.233 132.995 460.66C129.355 463 125.672 464.17 121.945 464.17ZM121.685 461.05C124.458 461.05 127.145 459.707 129.745 457.02C132.432 454.333 134.858 450.78 137.025 446.36C139.192 441.94 140.925 437.043 142.225 431.67C143.525 426.21 144.175 420.75 144.175 415.29C144.175 404.457 141.358 399.04 135.725 399.04C133.038 399.04 130.352 400.383 127.665 403.07C124.978 405.67 122.552 409.18 120.385 413.6C118.305 418.02 116.615 422.96 115.315 428.42C114.015 433.793 113.365 439.21 113.365 444.67C113.365 455.59 116.138 461.05 121.685 461.05ZM157.443 461.31L169.793 409.44C170.227 407.533 170.27 406.06 169.923 405.02C169.663 403.893 168.883 403.33 167.583 403.33C166.023 403.33 164.29 404.5 162.383 406.84C160.563 409.093 158.483 413.427 156.143 419.84C155.797 420.967 155.19 421.53 154.323 421.53C153.023 421.53 152.677 420.75 153.283 419.19C155.19 413.21 157.183 408.53 159.263 405.15C161.43 401.77 163.597 399.387 165.763 398C167.93 396.613 169.923 395.92 171.743 395.92C174.603 395.92 176.64 397.003 177.853 399.17C179.067 401.25 179.11 404.717 177.983 409.57L174.733 423.61C174.647 424.217 174.777 424.563 175.123 424.65C175.47 424.737 175.773 424.52 176.033 424C179.413 416.98 182.663 411.433 185.783 407.36C188.903 403.2 191.85 400.253 194.623 398.52C197.397 396.787 199.91 395.92 202.163 395.92C205.37 395.92 207.71 397.22 209.183 399.82C210.657 402.42 210.657 406.407 209.183 411.78L199.303 449.48C198.697 451.907 198.653 453.727 199.173 454.94C199.693 456.153 200.647 456.76 202.033 456.76C203.767 456.76 205.457 455.633 207.103 453.38C208.837 451.04 210.613 446.663 212.433 440.25C212.693 439.297 213.257 438.82 214.123 438.82C214.817 438.82 215.207 439.08 215.293 439.6C215.467 440.12 215.467 440.727 215.293 441.42C213.647 447.313 211.87 451.95 209.963 455.33C208.057 458.623 206.107 460.92 204.113 462.22C202.207 463.52 200.257 464.17 198.263 464.17C195.143 464.17 192.803 462.87 191.243 460.27C189.683 457.67 189.597 453.64 190.983 448.18L200.993 410.48C201.947 407.1 202.077 404.76 201.383 403.46C200.777 402.16 199.867 401.51 198.653 401.51C196.747 401.51 194.58 402.723 192.153 405.15C189.727 407.49 187.257 410.74 184.743 414.9C182.23 418.973 179.76 423.61 177.333 428.81C174.907 434.01 172.697 439.427 170.703 445.06C168.797 450.693 167.237 456.197 166.023 461.57C165.763 462.523 165.157 463 164.203 463H158.873C157.66 463 157.183 462.437 157.443 461.31ZM220.036 461.31L232.386 409.44C232.819 407.533 232.863 406.06 232.516 405.02C232.256 403.893 231.476 403.33 230.176 403.33C228.616 403.33 226.883 404.5 224.976 406.84C223.156 409.093 221.076 413.427 218.736 419.84C218.389 420.967 217.783 421.53 216.916 421.53C215.616 421.53 215.269 420.75 215.876 419.19C217.783 413.21 219.776 408.53 221.856 405.15C224.023 401.77 226.189 399.387 228.356 398C230.523 396.613 232.516 395.92 234.336 395.92C237.196 395.92 239.233 397.003 240.446 399.17C241.659 401.25 241.703 404.717 240.576 409.57L237.326 423.61C237.239 424.217 237.369 424.563 237.716 424.65C238.063 424.737 238.366 424.52 238.626 424C242.006 416.98 245.256 411.433 248.376 407.36C251.496 403.2 254.443 400.253 257.216 398.52C259.989 396.787 262.503 395.92 264.756 395.92C267.963 395.92 270.303 397.22 271.776 399.82C273.25 402.42 273.25 406.407 271.776 411.78L261.896 449.48C261.29 451.907 261.246 453.727 261.766 454.94C262.286 456.153 263.24 456.76 264.626 456.76C266.359 456.76 268.049 455.633 269.696 453.38C271.429 451.04 273.206 446.663 275.026 440.25C275.286 439.297 275.85 438.82 276.716 438.82C277.409 438.82 277.799 439.08 277.886 439.6C278.059 440.12 278.059 440.727 277.886 441.42C276.24 447.313 274.463 451.95 272.556 455.33C270.65 458.623 268.7 460.92 266.706 462.22C264.799 463.52 262.849 464.17 260.856 464.17C257.736 464.17 255.396 462.87 253.836 460.27C252.276 457.67 252.189 453.64 253.576 448.18L263.586 410.48C264.539 407.1 264.67 404.76 263.976 403.46C263.369 402.16 262.459 401.51 261.246 401.51C259.339 401.51 257.173 402.723 254.746 405.15C252.32 407.49 249.849 410.74 247.336 414.9C244.823 418.973 242.353 423.61 239.926 428.81C237.499 434.01 235.289 439.427 233.296 445.06C231.389 450.693 229.829 456.197 228.616 461.57C228.356 462.523 227.749 463 226.796 463H221.466C220.253 463 219.776 462.437 220.036 461.31ZM292.509 464.17C287.916 464.17 284.232 462.393 281.459 458.84C278.686 455.2 277.299 450.087 277.299 443.5C277.299 437.78 278.296 432.103 280.289 426.47C282.369 420.837 285.056 415.723 288.349 411.13C291.642 406.537 295.239 402.853 299.139 400.08C303.126 397.307 306.982 395.92 310.709 395.92C314.782 395.92 317.686 396.917 319.419 398.91C321.239 400.817 322.149 403.417 322.149 406.71C322.149 410.61 320.762 414.51 317.989 418.41C315.302 422.223 311.489 425.647 306.549 428.68C301.696 431.713 295.976 433.967 289.389 435.44C287.482 435.873 286.486 436.957 286.399 438.69C286.312 439.297 286.269 439.947 286.269 440.64C286.269 441.247 286.269 441.853 286.269 442.46C286.269 447.4 287.092 451.127 288.739 453.64C290.472 456.153 292.812 457.41 295.759 457.41C299.052 457.41 302.216 455.893 305.249 452.86C308.369 449.827 310.969 445.537 313.049 439.99C313.309 439.21 313.829 438.82 314.609 438.82C315.129 438.82 315.432 439.037 315.519 439.47C315.692 439.903 315.692 440.423 315.519 441.03C312.746 448.657 309.366 454.42 305.379 458.32C301.479 462.22 297.189 464.17 292.509 464.17ZM287.699 430.5C287.526 431.107 287.612 431.627 287.959 432.06C288.392 432.407 288.912 432.493 289.519 432.32C294.892 430.847 299.399 428.637 303.039 425.69C306.679 422.657 309.409 419.277 311.229 415.55C313.136 411.823 314.089 408.183 314.089 404.63C314.089 400.99 312.659 399.17 309.799 399.17C307.286 399.17 304.556 400.643 301.609 403.59C298.662 406.537 295.932 410.393 293.419 415.16C290.906 419.927 288.999 425.04 287.699 430.5ZM329.764 463C328.551 463 327.944 462.567 327.944 461.7C327.944 460.747 328.811 460.14 330.544 459.88L333.144 459.49C335.051 459.23 336.351 458.797 337.044 458.19C337.824 457.497 338.388 456.24 338.734 454.42L356.414 377.98C356.848 376.16 356.848 374.947 356.414 374.34C355.981 373.733 354.898 373.257 353.164 372.91L350.564 372.39C349.438 372.13 348.874 371.653 348.874 370.96C348.874 369.92 349.654 369.4 351.214 369.4H374.484C375.784 369.4 376.434 369.877 376.434 370.83C376.434 371.783 375.741 372.347 374.354 372.52L370.974 372.91C369.068 373.083 367.768 373.56 367.074 374.34C366.381 375.033 365.818 376.29 365.384 378.11L357.194 413.47C357.021 414.163 357.108 414.64 357.454 414.9C357.888 415.16 358.364 414.987 358.884 414.38L388.394 380.45C392.121 376.03 392.424 373.517 389.304 372.91L386.834 372.39C385.621 372.13 385.014 371.61 385.014 370.83C385.014 369.877 385.708 369.4 387.094 369.4H409.324C410.538 369.4 411.144 369.833 411.144 370.7C411.144 371.74 410.451 372.303 409.064 372.39L406.464 372.65C403.778 372.91 401.438 373.69 399.444 374.99C397.451 376.29 394.981 378.63 392.034 382.01L371.624 405.28C370.584 406.667 370.281 408.053 370.714 409.44L384.624 455.33C385.058 456.717 385.534 457.713 386.054 458.32C386.661 458.927 387.441 459.317 388.394 459.49L391.124 460.01C392.164 460.27 392.684 460.747 392.684 461.44C392.684 462.48 391.948 463 390.474 463H368.764C367.551 463 366.944 462.567 366.944 461.7C366.944 460.747 367.638 460.183 369.024 460.01L371.364 459.75C374.744 459.317 375.914 457.193 374.874 453.38L364.344 417.11C364.171 416.417 363.824 416.027 363.304 415.94C362.784 415.853 362.308 416.07 361.874 416.59L356.934 422.18C356.068 423.133 355.374 424.13 354.854 425.17C354.334 426.21 353.901 427.38 353.554 428.68L347.704 454.29C347.358 456.11 347.358 457.367 347.704 458.06C348.138 458.753 349.221 459.23 350.954 459.49L354.074 460.01C355.028 460.097 355.504 460.573 355.504 461.44C355.504 462.48 354.724 463 353.164 463H329.764ZM407.366 464.17C401.993 464.17 397.746 461.96 394.626 457.54C391.506 453.033 389.946 446.967 389.946 439.34C389.946 433.707 390.856 428.29 392.676 423.09C394.496 417.89 396.879 413.253 399.826 409.18C402.859 405.107 406.196 401.9 409.836 399.56C413.563 397.133 417.289 395.92 421.016 395.92C426.389 395.92 430.636 398.13 433.756 402.55C436.876 406.97 438.436 413.037 438.436 420.75C438.436 426.383 437.526 431.8 435.706 437C433.886 442.2 431.459 446.837 428.426 450.91C425.479 454.983 422.143 458.233 418.416 460.66C414.776 463 411.093 464.17 407.366 464.17ZM407.106 461.05C409.879 461.05 412.566 459.707 415.166 457.02C417.853 454.333 420.279 450.78 422.446 446.36C424.613 441.94 426.346 437.043 427.646 431.67C428.946 426.21 429.596 420.75 429.596 415.29C429.596 404.457 426.779 399.04 421.146 399.04C418.459 399.04 415.773 400.383 413.086 403.07C410.399 405.67 407.973 409.18 405.806 413.6C403.726 418.02 402.036 422.96 400.736 428.42C399.436 433.793 398.786 439.21 398.786 444.67C398.786 455.59 401.559 461.05 407.106 461.05ZM477.834 464.17C474.714 464.17 472.374 462.87 470.814 460.27C469.254 457.67 469.168 453.64 470.554 448.18L480.564 410.48C481.518 407.1 481.648 404.76 480.954 403.46C480.348 402.16 479.438 401.51 478.224 401.51C476.318 401.51 474.151 402.723 471.724 405.15C469.384 407.49 466.914 410.74 464.314 414.9C461.801 418.973 459.331 423.61 456.904 428.81C454.564 433.923 452.398 439.34 450.404 445.06C448.411 450.693 446.808 456.197 445.594 461.57C445.334 462.523 444.728 463 443.774 463H438.314C437.101 463 436.624 462.437 436.884 461.31L455.864 379.8C456.298 378.24 456.298 377.157 455.864 376.55C455.518 375.943 454.738 375.597 453.524 375.51L449.624 375.12C448.324 375.033 447.761 374.47 447.934 373.43C448.108 372.65 448.714 372.173 449.754 372C452.874 371.48 455.648 370.873 458.074 370.18C460.501 369.4 462.451 368.403 463.924 367.19C464.618 366.67 465.268 366.41 465.874 366.41C466.914 366.41 467.304 367.06 467.044 368.36L454.304 423.61C454.218 424.217 454.348 424.563 454.694 424.65C455.041 424.737 455.344 424.52 455.604 424C459.071 416.893 462.364 411.303 465.484 407.23C468.604 403.157 471.508 400.253 474.194 398.52C476.968 396.787 479.481 395.92 481.734 395.92C484.941 395.92 487.281 397.22 488.754 399.82C490.228 402.42 490.228 406.407 488.754 411.78L478.874 449.48C478.268 451.907 478.224 453.727 478.744 454.94C479.264 456.153 480.218 456.76 481.604 456.76C483.338 456.76 485.028 455.633 486.674 453.38C488.321 451.04 490.098 446.663 492.004 440.25C492.264 439.297 492.828 438.82 493.694 438.82C494.388 438.82 494.778 439.08 494.864 439.6C495.038 440.12 495.038 440.727 494.864 441.42C493.218 447.313 491.441 451.95 489.534 455.33C487.628 458.623 485.678 460.92 483.684 462.22C481.778 463.52 479.828 464.17 477.834 464.17ZM502.22 464.3C499.36 464.3 497.324 463.26 496.11 461.18C494.897 459.013 494.854 455.503 495.98 450.65L512.49 379.8C512.924 378.24 512.924 377.157 512.49 376.55C512.144 375.943 511.364 375.597 510.15 375.51L506.25 375.12C504.95 375.033 504.387 374.47 504.56 373.43C504.734 372.65 505.34 372.173 506.38 372C509.5 371.48 512.274 370.873 514.7 370.18C517.127 369.4 519.077 368.403 520.55 367.19C521.244 366.67 521.894 366.41 522.5 366.41C523.54 366.41 523.93 367.06 523.67 368.36L504.43 450.78C503.997 452.687 503.91 454.203 504.17 455.33C504.517 456.37 505.34 456.89 506.64 456.89C508.2 456.89 509.89 455.763 511.71 453.51C513.617 451.17 515.74 446.793 518.08 440.38C518.427 439.253 519.034 438.69 519.9 438.69C521.2 438.69 521.547 439.47 520.94 441.03C519.12 446.923 517.084 451.603 514.83 455.07C512.664 458.45 510.497 460.833 508.33 462.22C506.164 463.607 504.127 464.3 502.22 464.3ZM535.401 464.17C530.808 464.17 527.124 462.393 524.351 458.84C521.578 455.2 520.191 450.087 520.191 443.5C520.191 437.78 521.188 432.103 523.181 426.47C525.261 420.837 527.948 415.723 531.241 411.13C534.534 406.537 538.131 402.853 542.031 400.08C546.018 397.307 549.874 395.92 553.601 395.92C557.674 395.92 560.578 396.917 562.311 398.91C564.131 400.817 565.041 403.417 565.041 406.71C565.041 410.61 563.654 414.51 560.881 418.41C558.194 422.223 554.381 425.647 549.441 428.68C544.588 431.713 538.868 433.967 532.281 435.44C530.374 435.873 529.378 436.957 529.291 438.69C529.204 439.297 529.161 439.947 529.161 440.64C529.161 441.247 529.161 441.853 529.161 442.46C529.161 447.4 529.984 451.127 531.631 453.64C533.364 456.153 535.704 457.41 538.651 457.41C541.944 457.41 545.108 455.893 548.141 452.86C551.261 449.827 553.861 445.537 555.941 439.99C556.201 439.21 556.721 438.82 557.501 438.82C558.021 438.82 558.324 439.037 558.411 439.47C558.584 439.903 558.584 440.423 558.411 441.03C555.638 448.657 552.258 454.42 548.271 458.32C544.371 462.22 540.081 464.17 535.401 464.17ZM530.591 430.5C530.418 431.107 530.504 431.627 530.851 432.06C531.284 432.407 531.804 432.493 532.411 432.32C537.784 430.847 542.291 428.637 545.931 425.69C549.571 422.657 552.301 419.277 554.121 415.55C556.028 411.823 556.981 408.183 556.981 404.63C556.981 400.99 555.551 399.17 552.691 399.17C550.178 399.17 547.448 400.643 544.501 403.59C541.554 406.537 538.824 410.393 536.311 415.16C533.798 419.927 531.891 425.04 530.591 430.5ZM566.946 463C565.733 463 565.256 462.437 565.516 461.31L577.866 409.44C578.3 407.533 578.343 406.06 577.996 405.02C577.736 403.893 576.956 403.33 575.656 403.33C574.096 403.33 572.363 404.5 570.456 406.84C568.636 409.093 566.556 413.427 564.216 419.84C563.87 420.967 563.263 421.53 562.396 421.53C561.096 421.53 560.75 420.75 561.356 419.19C563.263 413.21 565.256 408.53 567.336 405.15C569.503 401.77 571.67 399.387 573.836 398C576.003 396.613 577.996 395.92 579.816 395.92C582.676 395.92 584.713 397.003 585.926 399.17C587.14 401.25 587.183 404.717 586.056 409.57L584.626 415.68C584.54 416.287 584.67 416.633 585.016 416.72C585.363 416.807 585.666 416.59 585.926 416.07C589.22 408.53 592.21 403.287 594.896 400.34C597.583 397.393 600.66 395.92 604.126 395.92C606.466 395.92 608.2 396.57 609.326 397.87C610.54 399.083 611.146 400.773 611.146 402.94C611.146 405.107 610.626 406.84 609.586 408.14C608.546 409.44 607.203 410.09 605.556 410.09C604.17 410.09 603.173 409.743 602.566 409.05C601.96 408.357 601.483 407.577 601.136 406.71C600.876 405.757 600.573 404.933 600.226 404.24C599.88 403.547 599.316 403.2 598.536 403.2C597.236 403.2 595.546 404.847 593.466 408.14C591.386 411.433 589.133 415.897 586.706 421.53C584.366 427.077 582.07 433.317 579.816 440.25C577.65 447.183 575.743 454.29 574.096 461.57C573.836 462.523 573.23 463 572.276 463H566.946Z" fill="#DF0939"/>
<defs>
<linearGradient id="paint0_linear_118_13" x1="312.62" y1="0" x2="312.62" y2="415" gradientUnits="userSpaceOnUse">
<stop offset="0.432692"/>
<stop offset="0.572115" stop-color="#747474"/>
<stop offset="0.923077" stop-color="#F0F0F0"/>
</linearGradient>
</defs>
</svg>
